<?xml version="1.0" standalone="no"?>
<!DOCTYPE svg PUBLIC "-//W3C//DTD SVG 1.1//EN" "http://www.w3.org/Graphics/SVG/1.1/DTD/svg11.dtd" >
<svg xmlns="http://www.w3.org/2000/svg">
<metadata>
Created by FontForge 20120731 at Wed Jul 26 14:37:09 2017
 By admin
</metadata>
<defs>
<font id="iconfont" horiz-adv-x="1024" >
  <font-face 
    font-family="iconfont"
    font-weight="500"
    font-stretch="normal"
    units-per-em="1024"
    panose-1="2 0 6 3 0 0 0 0 0 0"
    ascent="896"
    descent="-128"
    x-height="792"
    bbox="44 -77 963 830"
    underline-thickness="0"
    underline-position="0"
    unicode-range="U+0078-E624"
  />
<missing-glyph 
 />
    <glyph glyph-name=".notdef" 
 />
    <glyph glyph-name=".notdef" 
 />
    <glyph glyph-name=".null" horiz-adv-x="0" 
 />
    <glyph glyph-name="nonmarkingreturn" horiz-adv-x="341" 
 />
    <glyph glyph-name="x" unicode="x" horiz-adv-x="1001" 
d="M281 543q-27 -1 -53 -1h-83q-18 0 -36.5 -6t-32.5 -18.5t-23 -32t-9 -45.5v-76h912v41q0 16 -0.5 30t-0.5 18q0 13 -5 29t-17 29.5t-31.5 22.5t-49.5 9h-133v-97h-438v97zM955 310v-52q0 -23 0.5 -52t0.5 -58t-10.5 -47.5t-26 -30t-33 -16t-31.5 -4.5q-14 -1 -29.5 -0.5
t-29.5 0.5h-32l-45 128h-439l-44 -128h-29h-34q-20 0 -45 1q-25 0 -41 9.5t-25.5 23t-13.5 29.5t-4 30v167h911zM163 247q-12 0 -21 -8.5t-9 -21.5t9 -21.5t21 -8.5q13 0 22 8.5t9 21.5t-9 21.5t-22 8.5zM316 123q-8 -26 -14 -48q-5 -19 -10.5 -37t-7.5 -25t-3 -15t1 -14.5
t9.5 -10.5t21.5 -4h37h67h81h80h64h36q23 0 34 12t2 38q-5 13 -9.5 30.5t-9.5 34.5q-5 19 -11 39h-368zM336 498v228q0 11 2.5 23t10 21.5t20.5 15.5t34 6h188q31 0 51.5 -14.5t20.5 -52.5v-227h-327z" />
    <glyph glyph-name="arrow_left" unicode="&#xe60b;" 
d="M753 -24l-36 -35q-3 -3 -7 -3t-7 3l-419 430q-8 7 -8 17.5t8 17.5l404 416q3 3 7.5 3t7.5 -3l35 -35q3 -3 3 -7t-3 -7l-363 -374q-5 -4 -5 -10.5t5 -10.5l378 -388q3 -3 3 -7t-3 -7z" />
    <glyph glyph-name="arrow_right" unicode="&#xe60c;" 
d="M273 -24l36 -35q3 -3 7 -3t7 3l419 430q8 7 8 17.5t-8 17.5l-404 416q-3 3 -7.5 3t-7.5 -3l-35 -35q-3 -3 -3 -7t3 -7l363 -374q5 -4 5 -10.5t-5 -10.5l-378 -388q-3 -3 -3 -7t3 -7v0z" />
    <glyph glyph-name="correct" unicode="&#xe60d;" 
d="M515 -5q105 0 194 51.5t140.5 140.5t51.5 194t-51.5 194.5t-140.5 141t-194 51.5t-194.5 -51.5t-141 -141t-51.5 -194.5t51.5 -194t141 -140.5t194.5 -51.5zM514.5 -67q-91.5 0 -174.5 35.5t-142.5 95.5t-95 143t-35.5 174.5t35.5 174.5t95 142.5t142.5 95t174.5 35.5
t174.5 -35.5t143 -95t95.5 -142.5t35.5 -174.5t-35.5 -174.5t-95.5 -143t-143 -95.5t-174.5 -35.5zM344 349l-43 -45l123 -115q8 -9 21 -9q12 0 21 9l289 287l-43 43l-268 -265z" />
    <glyph glyph-name="correct1" unicode="&#xe60e;" 
d="M335 159l-207 196q-3 3 -7 3t-7 -3l-35 -37q-3 -3 -3 -7q0 -5 3 -8l240 -227q10 -9 24 -9q15 0 25 10l577 571q3 3 3 7.5t-3 7.5l-36 36q-3 3 -7 3t-7 -3l-545 -540q-3 -3 -7.5 -3t-7.5 3z" />
    <glyph glyph-name="search" unicode="&#xe60f;" 
d="M787 175l166 -145q3 -3 3 -7t-2 -7l-34 -39q-3 -3 -8 -3q-4 0 -6 2l-164 143q-55 -56 -128.5 -87.5t-155.5 -31.5q-108 0 -199 53t-144.5 144.5t-53.5 199.5t53.5 199t144.5 144.5t199 53.5t199.5 -53.5t144.5 -144.5t53 -199q0 -122 -68 -222zM458.5 72q88.5 0 163 43.5
t118 118t43.5 163t-43.5 163.5t-118 118.5t-163 43.5t-163.5 -43.5t-118.5 -118.5t-43.5 -163.5t43.5 -163t118.5 -118t163.5 -43.5z" />
    <glyph glyph-name="time" unicode="&#xe610;" 
d="M455 307v223q0 4 3 7t7 3h49v0q4 0 7 -3t3 -7v-189h189v0q4 0 7 -3t3 -7v-48q0 -5 -3 -8t-7 -3h-258v35v0zM514.5 -67q-91.5 0 -174.5 35.5t-142.5 95.5t-95 143t-35.5 174.5t35.5 174.5t95 142.5t142.5 95t174.5 35.5t174.5 -35.5t143 -95t95.5 -142.5t35.5 -174.5
t-35.5 -174.5t-95.5 -143t-143 -95.5t-174.5 -35.5zM515 2q103 0 190 51t138 138t51 190t-51 190.5t-138 138.5t-190 51t-190.5 -51t-138.5 -138.5t-51 -190.5t51 -190t138.5 -138t190.5 -51z" />
    <glyph glyph-name="order" unicode="&#xe611;" 
d="M320 796v1q0 12 9 21t22 9h323v0q13 0 22 -9t9 -21v-1h152q18 0 30 -12.5t12 -29.5v-775q0 -18 -12 -30.5t-30 -12.5h-697q-17 0 -29.5 12.5t-12.5 30.5v775q0 17 12.5 29.5t29.5 12.5h160zM320 725h-131v-723h643v723h-127q-1 -12 -10 -20.5t-21 -8.5h-323
q-12 0 -21 8.5t-10 20.5zM303 124v0q-4 0 -7 3t-3 8v53q0 5 3 8t7 3h415v0q4 0 7 -3t3 -8v-53q0 -5 -3 -8t-7 -3h-415zM303 294v0q-4 0 -7 3t-3 7v54q0 4 3 7t7 3h415v0q4 0 7 -3t3 -7v-54q0 -4 -3 -7t-7 -3h-415zM303 464v0q-4 0 -7 3t-3 7v54q0 4 3 7t7 3h415v0q4 0 7 -3
t3 -7v-54q0 -4 -3 -7t-7 -3h-415z" />
    <glyph glyph-name="attention" unicode="&#xe612;" 
d="M514.5 -67q-91.5 0 -174.5 35.5t-142.5 95.5t-95 143t-35.5 174.5t35.5 174.5t95 142.5t142.5 95t174.5 35.5t174.5 -35.5t143 -95t95.5 -142.5t35.5 -174.5t-35.5 -174.5t-95.5 -143t-143 -95.5t-174.5 -35.5zM514.5 5q102.5 0 189 50.5t137 137t50.5 189t-50.5 189
t-137 137t-189 50.5t-189 -50.5t-137 -137t-50.5 -189t50.5 -189t137 -137t189 -50.5zM517 159q-15 0 -25.5 10.5t-10.5 25t10.5 25t25.5 10.5t25.5 -10.5t10.5 -25t-10.5 -25t-25.5 -10.5zM481 588v1q0 4 3 7t8 3h51q4 0 7 -3t3 -7v-1l-10 -307q0 -10 -10 -10h-32v0
q-10 0 -10 10z" />
    <glyph glyph-name="edit" unicode="&#xe613;" 
d="M161 677v0q-4 0 -7 -3t-3 -8v-648q0 -4 3 -7t7 -3h649v0q4 0 7 3t3 7v307q0 4 3 7t7 3h54v0q4 0 7 -3t3 -7v-381q0 -5 -3 -8t-7 -3h-797q-4 0 -7 3t-3 8v797q0 4 3 7t7 3h389v0q4 0 7 -3t3 -7v-54q0 -4 -3 -7t-7 -3h-315zM762 827l179 -179q3 -3 3 -7t-3 -7l-424 -423
q-3 -3 -7 -3v0l-171 7q-10 0 -10 10l-7 171v0q0 4 3 7l423 424q3 3 7 3t7 -3zM748 721l-348 -347q-3 -3 -3 -7v-1l3 -70q1 -9 10 -10l70 -3h1q4 0 7 3l347 348q3 3 3 7t-3 7l-73 73q-3 3 -7 3t-7 -3z" />
    <glyph glyph-name="service" unicode="&#xe614;" 
d="M433 13q-131 21 -213 105q-32 31 -61 77q-1 3 -5 13.5t-6 16.5h-5q-31 0 -53.5 22.5t-22.5 54.5v190q0 31 22.5 53.5t53.5 22.5h12q48 113 144.5 182t212.5 69q119 0 216.5 -69t145.5 -182h12q31 0 54 -22.5t23 -53.5v-190q0 -32 -23 -54.5t-54 -22.5h-62
q-31 0 -53.5 22.5t-22.5 54.5v190q0 24 13.5 43.5t35.5 27.5q-43 84 -118.5 134.5t-166.5 50.5q-87 0 -162 -50.5t-117 -134.5q21 -8 35 -27.5t14 -43.5v-190q0 -26 -16 -46.5t-40 -27.5q15 -31 45 -59q64 -66 171 -84q13 22 34 35t46 13q41 0 69.5 -28t28.5 -69
q0 -38 -28.5 -65t-69.5 -27q-31 0 -56 19.5t-33 49.5zM143 497q-5 0 -5 -5v-190q0 -5 5 -5h62q5 0 5 5v190q0 5 -5 5h-62zM824 497q-5 0 -5 -5v-190q0 -5 5 -5h62q5 0 5 5v190q0 5 -5 5h-62zM522 5q16 0 26 9.5t10 21.5q0 16 -10 26t-26 10q-12 0 -21 -10.5t-9 -25.5
q0 -12 9 -21.5t21 -9.5z" />
    <glyph glyph-name="delete" unicode="&#xe616;" 
d="M722 696h189v0q5 0 8 -3t3 -7v-56q0 -4 -3 -7t-8 -3h-798q-5 0 -8 3t-3 7v56q0 4 3 7t8 3h170l60 108q12 25 41 25h246q10 0 20.5 -7t15.5 -18zM371 696h261l-28 57h-205zM379 532q0 5 3 8t7 3h56v0q5 0 8 -3t3 -8v-460q0 -5 -3 -8t-8 -3h-56v0q-4 0 -7 3t-3 8v460z
M563 532q0 5 3 8t7 3h57v0q4 0 7 -3t3 -8v-460q0 -5 -3 -8t-7 -3h-57v0q-4 0 -7 3t-3 8v460zM251 0h522v532q0 5 3 8t7 3h57v0q4 0 7 -3t3 -8v-568q0 -16 -12.5 -28.5t-28.5 -12.5h-594q-16 0 -28.5 12.5t-12.5 28.5v568q0 5 3 8t7 3h57v0q4 0 7 -3t3 -8v-532v0z" />
    <glyph glyph-name="password" unicode="&#xe617;" 
d="M221 553q8 116 92 196t199 80q116 0 199.5 -80t91.5 -196h67q30 0 51 -21t21 -51v-476q0 -30 -21 -51t-51 -21h-716q-30 0 -51 21t-21 51v476q0 30 21 51t51 21h67zM288 553h448q-9 88 -73 147t-151 58q-87 1 -151 -58t-73 -147zM492 415v0q-5 0 -8 -3t-3 -8v-322
q0 -4 3 -7t8 -3h46v0q4 0 7 3t3 7v322q0 5 -3 8t-7 3h-46z" />
    <glyph glyph-name="phonenumber" unicode="&#xe618;" 
d="M282 829h460q26 0 44 -18t18 -43v-773q0 -26 -18 -44t-44 -18h-460q-26 0 -44 18t-18 44v773q0 25 18 43t44 18zM297 707v0q-6 0 -10.5 -4.5t-4.5 -11.5v-527q0 -7 4.5 -11.5t10.5 -4.5h430v0q6 0 10.5 4.5t4.5 11.5v527q0 7 -4.5 11.5t-10.5 4.5h-430zM512 -5
q19 0 32.5 13.5t13.5 32.5t-13.5 32.5t-32.5 13.5t-32.5 -13.5t-13.5 -32.5t13.5 -32.5t32.5 -13.5z" />
    <glyph glyph-name="username" unicode="&#xe619;" 
d="M509 829q88 0 150.5 -62t62.5 -150v-41q0 -88 -62.5 -150t-150.5 -62t-150 62t-62 150v41q0 88 62 150t150 62zM881 41q0 -49 -115.5 -76t-253.5 -27t-253.5 27t-115.5 76q0 66 49.5 123t134.5 90t185 33t185 -33t134.5 -90t49.5 -123z" />
    <glyph glyph-name="close1" unicode="&#xe61a;" 
d="M515 441l-331 330q-3 3 -7 3t-7 -3l-45 -45q-3 -3 -3 -7t3 -7l330 -331l-330 -330q-3 -3 -3 -7t3 -7l45 -45q3 -3 7 -3t7 3l331 330l330 -330q3 -3 7 -3t7 3l45 45q3 3 3 7t-3 7l-330 330l330 331q3 3 3 7t-3 7l-45 45q-3 3 -7 3t-7 -3z" />
    <glyph glyph-name="sort" unicode="&#xe61d;" 
d="M845 364l104 -107q9 -12 7.5 -28t-13.5 -28q-10 -9 -25 -7.5t-25 13.5l-106 108q-63 -39 -137 -39q-108 0 -184.5 76.5t-76.5 185t76.5 185t184.5 76.5t184.5 -76.5t76.5 -184.5q0 -100 -66 -174zM102 701q-14 0 -24.5 10.5t-10.5 25.5t10.5 25.5t24.5 10.5h185
q14 0 25 -10.5t11 -25.5t-11 -25.5t-25 -10.5h-185v0zM102 333q-14 0 -24.5 10.5t-10.5 25t10.5 25t24.5 10.5h185q14 0 25 -10.5t11 -25t-11 -25t-25 -10.5h-185v0zM102 -31q-14 0 -24.5 10.5t-10.5 25.5t10.5 25.5t24.5 10.5h779q14 0 24.5 -10.5t10.5 -25.5t-10.5 -25.5
t-24.5 -10.5h-779zM655 353q76 0 130.5 54.5t54.5 130.5q0 79 -54.5 134t-130.5 55q-79 0 -134 -55t-55 -134q0 -76 55 -130.5t134 -54.5z" />
    <glyph glyph-name="sortfill" unicode="&#xe61e;" 
d="M845 363l105 -104q9 -13 8 -29t-13 -27q-10 -10 -25.5 -8.5t-25.5 12.5l-108 107q-62 -38 -136 -38q-108 0 -184.5 76.5t-76.5 185t76.5 185t184.5 76.5t184.5 -76.5t76.5 -184.5q0 -100 -66 -175zM102 701q-14 0 -24.5 10.5t-10.5 25.5t10.5 25.5t24.5 10.5h185
q14 0 25 -10.5t11 -25.5t-11 -25.5t-25 -10.5h-185zM102 333q-14 0 -24.5 10.5t-10.5 25t10.5 25t24.5 10.5h185q14 0 25 -10.5t11 -25t-11 -25t-25 -10.5h-185zM102 -31q-14 0 -24.5 10.5t-10.5 25.5t10.5 25.5t24.5 10.5h779q14 0 24.5 -10.5t10.5 -25.5t-10.5 -25.5
t-24.5 -10.5h-779zM655 353q76 0 130.5 54.5t54.5 130.5q0 79 -54.5 134t-130.5 55q-79 0 -134 -55t-55 -134q0 -76 55 -130.5t134 -54.5z" />
    <glyph glyph-name="user" unicode="&#xe61f;" 
d="M809 256q97 -56 97 -143q0 -94 -138 -144q-106 -36 -256 -36q-145 0 -256 36q-138 52 -138 144q0 77 77 128q40 33 138 71q14 4 41 16v0q8 6 10 15q5 5 5 10q-55 55 -79.5 105.5t-22.5 114.5q-2 110 63.5 183t161.5 73q97 0 163 -72.5t67 -183.5q-3 -78 -61 -158
q-4 -8 -15 -23.5t-18.5 -26.5t-7.5 -12q-6 -3 0 -15q3 -7 5 -10q120 -43 164 -72zM620 261zM573 312q-19 48 6 82q0 1 9.5 13.5t20 26.5l16.5 22q43 65 46 117q-2 84 -47.5 137t-111.5 53q-69 0 -115.5 -53t-48.5 -137q2 -48 21.5 -87t65.5 -87q37 -38 5 -87q-6 -16 -18 -29
t-23 -17q-31 -11 -41 -15q-92 -34 -133 -65t-41 -68q0 -47 95.5 -80t232.5 -33q136 0 229.5 32.5t93.5 80.5q0 46 -62 82q-44 28 -159 66q-21 7 -41 46z" />
    <glyph glyph-name="userfill" unicode="&#xe620;" 
d="M809 256q97 -56 97 -143q0 -94 -138 -144q-106 -36 -256 -36q-145 0 -256 36q-138 52 -138 144q0 77 77 128q40 33 138 71q14 4 41 16v0q8 6 10 15q5 5 5 10q-55 55 -79.5 105.5t-22.5 114.5q-2 110 63.5 183t161.5 73q97 0 163 -72.5t67 -183.5q-3 -78 -61 -158
q-4 -8 -15 -23.5t-18.5 -26.5t-7.5 -12q-6 -3 0 -15q3 -7 5 -10q120 -43 164 -72zM620 261zM521 792l155 -71l22 -104l-33 -157l-56 -104l30 -71l106 -29l127 -60v-97l-70 -90l-323 -41l-140 16l-131 43l-51 57l31 100l174 101l61 25l-14 78l-85 116v113l71 136z" />
    <glyph glyph-name="home1" unicode="&#xe621;" 
d="M635 31h102q30 0 51 21t21 50v377l-302 243l-297 -238v-382q0 -29 21 -50t51 -21h102v179q0 18 14 32t32 14h159q18 0 32 -14t14 -32v-179zM143 430l-25 -20q-13 -8 -27 -6.5t-24 11.5q-7 12 -5.5 25.5t10.5 20.5l414 333q11 5 23.5 5t22.5 -5l415 -333q9 -10 10.5 -24.5
t-5.5 -26.5q-10 -10 -24 -11t-27 5l-25 21v-323q0 -57 -40.5 -97.5t-98.5 -40.5h-455q-58 0 -98.5 40.5t-40.5 97.5v328zM451 -36h117v225h-117v-225z" />
    <glyph glyph-name="homefill" unicode="&#xe622;" 
d="M618 -26h119q57 0 97.5 40.5t40.5 97.5v320l26 -20q12 -7 26.5 -5.5t24.5 10.5q7 12 5.5 26t-10.5 25l-415 330q-10 6 -22.5 6t-23.5 -6l-414 -330q-9 -7 -10.5 -20.5t5.5 -25.5q10 -10 24.5 -11.5t26.5 6.5l26 20v-325q0 -57 40.5 -97.5t97.5 -40.5h119v244
q0 19 12 32.5t28 13.5h137q16 0 28 -13.5t12 -32.5v-244z" />
    <glyph glyph-name="aihuishou" unicode="&#xe623;" 
d="M195 307v281v0q0 8 6 13l97 70q4 3 9 3t9 -3l146 -105q22 -17 51 -17q27 0 49 16l155 106q3 3 8 3q6 0 10 -3l89 -70q5 -4 5 -12v-232q0 -13 -7.5 -28.5t-17.5 -23.5l-254 -199q-18 -14 -41 -14q-21 0 -39 12l-132 94q-9 7 -21 7q-15 0 -25.5 -10.5t-10.5 -25.5
q0 -19 16 -29l132 -94q15 -11 38.5 -18.5t41.5 -7.5q20 0 45 8.5t40 21.5l254 198q22 17 37.5 49t15.5 60v232v0q0 18 -10 38t-23 31l-89 69q-24 19 -54 19q-27 0 -49 -16l-155 -106q-3 -3 -8 -3t-9 3l-146 105q-23 17 -51 17t-51 -17l-97 -70q-15 -11 -25.5 -31.5
t-10.5 -39.5v-281q0 -15 10.5 -25.5t25.5 -10.5t25.5 10.5t10.5 25.5z" />
    <glyph glyph-name="aihuishoufill" unicode="&#xe624;" 
d="M195 307v281v0q0 8 6 13l97 70q4 3 9 3t9 -3l146 -105q22 -17 51 -17q27 0 49 16l155 106q3 3 8 3q6 0 10 -3l89 -70q5 -4 5 -12v-232q0 -13 -7.5 -28.5t-17.5 -23.5l-254 -199q-18 -14 -41 -14q-21 0 -39 12l-132 94q-9 7 -21 7q-15 0 -25.5 -10.5t-10.5 -25.5
q0 -19 16 -29l132 -94q15 -11 38.5 -18.5t41.5 -7.5q20 0 45 8.5t40 21.5l254 198q22 17 37.5 49t15.5 60v232v0q0 18 -10 38t-23 31l-89 69q-24 19 -54 19q-27 0 -49 -16l-155 -106q-3 -3 -8 -3t-9 3l-146 105q-23 17 -51 17t-51 -17l-97 -70q-15 -11 -25.5 -31.5
t-10.5 -39.5v-281q0 -15 10.5 -25.5t25.5 -10.5t25.5 10.5t10.5 25.5z" />
  </font>
</defs>
</svg>
